<svg xmlns="http://www.w3.org/2000/svg" xmlns:xlink="http://www.w3.org/1999/xlink" viewBox="0 0 236 48" width="236" height="48">
    <path fill="url(#L)" d="M.1 29.4l8.1-28c.3-.8 1-1.4 1.9-1.4h6.2c1.3 0 2.2 1.3 1.9 2.6l-8.1 28c-.4.8-1.1 1.4-2 1.4h-6.1c-1.4 0-2.3-1.3-1.9-2.6zm11.6 18.6h6.2c.9 0 1.6-.6 1.9-1.4l8.1-28c.4-1.3-.6-2.6-1.9-2.6h-6.2c-.9 0-1.6.6-1.9 1.4l-8.1 28c-.3 1.3.6 2.6 1.9 2.6z"/>
    <path d="M54.4 30.7h8.1v3.9h-12.3v-20.7h4.2v16.8zm21.6-10.9h3.9v14.8h-3.9v-1.7c-1.1 1.3-2.7 2.2-5 2.2-4.1 0-7.4-3.4-7.4-7.8s3.4-7.8 7.4-7.8c2.2 0 3.9.8 5 2.2v-1.9zm0 7.4c0-2.5-1.8-4.2-4.2-4.2-2.4 0-4.2 1.7-4.2 4.2s1.8 4.2 4.2 4.2c2.4 0 4.2-1.7 4.2-4.2zm11.4-4.9v-2.5h-3.9v14.8h3.9v-7.1c0-3.1 2.6-4 4.6-3.8v-4.3c-1.8.1-3.8.9-4.6 2.9zm18-2.5h3.9v14.8h-3.9v-1.7c-1.1 1.3-2.7 2.2-5 2.2-4.1 0-7.4-3.4-7.4-7.8s3.4-7.8 7.4-7.8c2.2 0 3.9.8 5 2.2v-1.9zm0 7.4c0-2.5-1.8-4.2-4.2-4.2-2.4 0-4.2 1.7-4.2 4.2s1.8 4.2 4.2 4.2c2.4 0 4.2-1.7 4.2-4.2zm13.8 3l-3.7-10.3h-4.3l5.8 14.8h4.5l5.8-14.8h-4.3l-3.8 10.3zm24.3-3c0 .6-.1 1.1-.2 1.6h-11.5c.5 2 2.2 2.8 4.3 2.8 1.5 0 2.7-.6 3.4-1.5l3.2 1.8c-1.4 2-3.7 3.2-6.6 3.2-5.1 0-8.4-3.4-8.4-7.8s3.3-7.8 8-7.8c4.6-.1 7.8 3.3 7.8 7.7zm-3.9-1.4c-.5-2.1-2.1-3-3.8-3-2.1 0-3.5 1.1-4 3h7.8zm6.6 8.8h3.9v-21.6h-3.9v21.6zm27.4-9.9c-.9-.4-2.1-.7-3.6-1.1l-.8-.2c-1.6-.4-2.9-.9-3.7-1.4-.8-.6-1.3-1.4-1.3-2.6 0-1.3.5-2.4 1.5-3.1 1-.8 2.3-1.1 4-1.1 1.2 0 2.3.2 3.3.6 1 .4 2 1.1 2.9 1.9l.7-1.4c-.9-.9-1.9-1.6-3.1-2-1.2-.5-2.5-.7-3.9-.7-1.5 0-2.7.2-3.8.7-1.1.5-1.9 1.2-2.5 2.1-.6.9-.9 1.9-.9 3.1 0 1.3.3 2.3 1 3.1.7.8 1.5 1.3 2.5 1.7 1 .4 2.3.7 3.8 1.1 1.2.3 2.1.5 2.9.8.7.3 1.3.7 1.8 1.1.5.5.7 1.1.7 1.9 0 1.3-.5 2.3-1.4 3.1-1 .7-2.3 1.1-4 1.1-1.4 0-2.7-.2-3.7-.6-1-.4-2.1-1-3.1-2l-.7 1.4c1 .9 2.1 1.6 3.3 2.1 1.2.4 2.7.7 4.3.7 1.5 0 2.7-.2 3.8-.7 1.1-.5 1.9-1.2 2.5-2 .6-.9.9-1.9.9-3 0-1.2-.3-2.1-.9-2.8-.9-.9-1.6-1.4-2.5-1.8zm18.7-1.5c.5 1.2.8 2.5.8 4s-.3 2.9-.8 4-1.3 2-2.3 2.6c-1 .6-2.1.9-3.4.9-1.2 0-2.2-.3-3.1-.8-.9-.5-1.5-1.3-1.9-2.3v9.4h-1.6v-17c0-1.5-.1-2.9-.2-4.1h1.7l.2 2.9c.4-1 1.1-1.8 1.9-2.4.9-.6 1.9-.8 3.1-.8 1.3 0 2.4.3 3.3 1 1 .6 1.8 1.5 2.3 2.6zm-1 4.1c0-1.9-.4-3.4-1.3-4.5-.8-1.1-2-1.6-3.5-1.6s-2.7.5-3.5 1.6c-.8 1.1-1.2 2.6-1.2 4.5s.4 3.4 1.2 4.5c.8 1.1 2 1.6 3.5 1.6s2.7-.5 3.5-1.6c.9-1.2 1.3-2.6 1.3-4.5zm16.1-7.4h1.8v14.7h-1.8v-2.8c-.4 1-1.1 1.7-1.9 2.3-.9.5-1.9.8-3.1.8-1.3 0-2.4-.3-3.4-.9-1-.6-1.7-1.5-2.2-2.6-.5-1.1-.8-2.5-.8-4s.3-2.9.8-4c.5-1.2 1.3-2.1 2.3-2.7 1-.6 2.1-1 3.3-1 1.2 0 2.2.3 3 .8.9.5 1.5 1.3 1.9 2.2v-2.8zm0 7.3c0-1.9-.4-3.4-1.2-4.5-.8-1.1-2-1.6-3.5-1.6s-2.7.5-3.5 1.6c-.8 1.1-1.3 2.6-1.3 4.5s.4 3.4 1.3 4.4c.8 1 2 1.6 3.6 1.6 1.5 0 2.7-.5 3.5-1.6.7-1 1.1-2.5 1.1-4.4zm10-6.8c-.8.5-1.4 1.3-1.8 2.3l-.2-2.7h-1.7c.2 1.2.2 2.6.2 4.1v10.6h1.7v-8.7c0-1.3.4-2.4 1.1-3.4.7-1 1.8-1.4 3.3-1.4.5 0 1 0 1.3.1l.1-1.6c-.4-.1-.8-.1-1.3-.1-1 0-1.9.2-2.7.8zm10.3 6.6l7.5-7.1h-2.3l-7.2 6.9v-13.8h-1.7v21.6h1.7v-7.2l7.9 7.2h2.4l-8.3-7.6z"/>
    <radialGradient cx="16.75" cy="26.50" fx="23.73" fy="25.11" gradientTransform="matrix(.97 0 0 1.63 -.93 -16.87)" gradientUnits="userSpaceOnUse" id="L" r="16.99">
        <stop offset="0" stop-color="#7C46F6"/>
        <stop offset=".81" stop-color="#00E1FF"/>
    </radialGradient>
</svg>
